<?xml version="1.0" standalone="no"?>
<!DOCTYPE svg PUBLIC "-//W3C//DTD SVG 20010904//EN"
 "http://www.w3.org/TR/2001/REC-SVG-20010904/DTD/svg10.dtd">
<svg version="1.0" xmlns="http://www.w3.org/2000/svg"
 width="950.000000pt" height="240.000000pt" viewBox="0 0 950.000000 240.000000"
 preserveAspectRatio="xMidYMid meet">
<metadata>
Created by potrace 1.13, written by Peter Selinger 2001-2015
</metadata>
<g transform="translate(0.000000,240.000000) scale(0.100000,-0.100000)"
fill="#000000" stroke="none">
<path d="M0 2345 l0 -50 97 3 c150 4 173 10 36 8 -66 0 -119 2 -116 7 2 4 79
8 171 9 l167 2 -170 6 -170 6 245 4 245 4 -245 6 -245 6 290 4 290 5 -290 5
c-160 3 403 8 1250 10 847 3 1344 6 1105 7 -239 2 -936 4 -1548 5 l-1112 3 0
-50z"/>
<path d="M3643 2383 c192 -2 502 -2 690 0 188 1 32 2 -348 2 -379 0 -533 -1
-342 -2z"/>
<path d="M6493 2383 c115 -2 299 -2 410 0 111 1 18 2 -208 2 -225 0 -316 -1
-202 -2z"/>
<path d="M7128 2383 c12 -2 30 -2 40 0 9 3 -1 5 -23 4 -22 0 -30 -2 -17 -4z"/>
<path d="M7468 2383 c7 -3 16 -2 19 1 4 3 -2 6 -13 5 -11 0 -14 -3 -6 -6z"/>
<path d="M623 2363 c9 -2 23 -2 30 0 6 3 -1 5 -18 5 -16 0 -22 -2 -12 -5z"/>
<path d="M868 2363 c6 -2 18 -2 25 0 6 3 1 5 -13 5 -14 0 -19 -2 -12 -5z"/>
<path d="M923 2363 c9 -2 25 -2 35 0 9 3 1 5 -18 5 -19 0 -27 -2 -17 -5z"/>
<path d="M1883 2363 c499 -2 1315 -2 1815 0 499 1 90 2 -908 2 -998 0 -1407
-1 -907 -2z"/>
<path d="M6473 2363 c9 -2 23 -2 30 0 6 3 -1 5 -18 5 -16 0 -22 -2 -12 -5z"/>
<path d="M6898 2363 c210 -2 554 -2 765 0 210 1 38 2 -383 2 -421 0 -593 -1
-382 -2z"/>
<path d="M1918 2343 c486 -2 1278 -2 1760 0 482 1 85 2 -883 2 -968 0 -1363
-1 -877 -2z"/>
<path d="M7053 2343 c214 -2 560 -2 770 0 210 1 36 2 -388 2 -423 0 -595 -1
-382 -2z"/>
<path d="M1953 2323 c472 -2 1242 -2 1710 0 469 1 83 2 -858 2 -940 0 -1324
-1 -852 -2z"/>
<path d="M7138 2323 c233 -2 611 -2 840 0 229 1 39 2 -423 2 -462 0 -650 -1
-417 -2z"/>
<path d="M1543 2303 c20 -2 54 -2 75 0 20 2 3 4 -38 4 -41 0 -58 -2 -37 -4z"/>
<path d="M1673 2303 c9 -2 23 -2 30 0 6 3 -1 5 -18 5 -16 0 -22 -2 -12 -5z"/>
<path d="M1743 2303 c9 -2 23 -2 30 0 6 3 -1 5 -18 5 -16 0 -22 -2 -12 -5z"/>
<path d="M2517 2303 c255 -2 671 -2 925 0 255 1 47 2 -462 2 -509 0 -717 -1
-463 -2z"/>
<path d="M4048 2303 c7 -3 16 -2 19 1 4 3 -2 6 -13 5 -11 0 -14 -3 -6 -6z"/>
<path d="M4142 2303 c37 -2 100 -2 140 0 40 1 10 3 -67 3 -77 0 -110 -1 -73
-3z"/>
<path d="M7263 2303 c269 -2 705 -2 970 0 265 1 46 2 -488 2 -533 0 -750 -1
-482 -2z"/>
<path d="M8818 2303 c7 -3 16 -2 19 1 4 3 -2 6 -13 5 -11 0 -14 -3 -6 -6z"/>
<path d="M9013 2303 c15 -2 39 -2 55 0 15 2 2 4 -28 4 -30 0 -43 -2 -27 -4z"/>
<path d="M9173 2303 c26 -2 67 -2 90 0 23 2 2 3 -48 3 -49 0 -68 -1 -42 -3z"/>
<path d="M9333 2303 c15 -2 37 -2 50 0 12 2 0 4 -28 4 -27 0 -38 -2 -22 -4z"/>
<path d="M9453 2303 c9 -2 25 -2 35 0 9 3 1 5 -18 5 -19 0 -27 -2 -17 -5z"/>
<path d="M1588 2283 c7 -3 16 -2 19 1 4 3 -2 6 -13 5 -11 0 -14 -3 -6 -6z"/>
<path d="M2223 2283 c48 -2 125 -2 170 0 45 1 6 3 -88 3 -93 0 -130 -2 -82 -3z"/>
<path d="M2488 2283 c6 -2 18 -2 25 0 6 3 1 5 -13 5 -14 0 -19 -2 -12 -5z"/>
<path d="M2763 2283 c9 -2 25 -2 35 0 9 3 1 5 -18 5 -19 0 -27 -2 -17 -5z"/>
<path d="M3048 2283 c117 -2 306 -2 420 0 114 1 18 2 -213 2 -231 0 -324 -1
-207 -2z"/>
<path d="M4223 2283 c9 -2 23 -2 30 0 6 3 -1 5 -18 5 -16 0 -22 -2 -12 -5z"/>
<path d="M7447 2283 c375 -2 991 -2 1370 0 378 1 72 2 -682 2 -753 0 -1063 -1
-688 -2z"/>
<path d="M2233 2263 c15 -2 37 -2 50 0 12 2 0 4 -28 4 -27 0 -38 -2 -22 -4z"/>
<path d="M2348 2263 c7 -3 16 -2 19 1 4 3 -2 6 -13 5 -11 0 -14 -3 -6 -6z"/>
<path d="M3138 2263 c89 -2 235 -2 325 0 89 1 16 3 -163 3 -179 0 -252 -2
-162 -3z"/>
<path d="M6783 2263 c37 -2 96 -2 130 0 34 2 4 3 -68 3 -71 0 -99 -1 -62 -3z"/>
<path d="M7068 2263 c17 -2 47 -2 65 0 17 2 3 4 -33 4 -36 0 -50 -2 -32 -4z"/>
<path d="M7273 2263 c53 -2 141 -2 195 0 53 1 9 3 -98 3 -107 0 -151 -2 -97
-3z"/>
<path d="M8053 2263 c269 -2 705 -2 970 0 265 1 46 2 -488 2 -533 0 -750 -1
-482 -2z"/>
<path d="M3193 2243 c26 -2 67 -2 90 0 23 2 2 3 -48 3 -49 0 -68 -1 -42 -3z"/>
<path d="M6743 2243 c42 -2 112 -2 155 0 42 1 7 3 -78 3 -85 0 -120 -2 -77 -3z"/>
<path d="M8133 2243 c251 -2 663 -2 915 0 251 1 45 2 -458 2 -503 0 -709 -1
-457 -2z"/>
<path d="M6723 2223 c48 -2 125 -2 170 0 45 1 6 3 -88 3 -93 0 -130 -2 -82 -3z"/>
<path d="M8433 2223 c196 -2 518 -2 715 0 196 1 35 2 -358 2 -393 0 -554 -1
-357 -2z"/>
<path d="M3488 2203 c6 -2 18 -2 25 0 6 3 1 5 -13 5 -14 0 -19 -2 -12 -5z"/>
<path d="M6678 2203 c56 -2 148 -2 205 0 56 1 10 3 -103 3 -113 0 -159 -2
-102 -3z"/>
<path d="M8563 2203 c175 -2 459 -2 630 0 172 1 29 2 -318 2 -346 0 -487 -1
-312 -2z"/>
<path d="M3488 2183 c12 -2 30 -2 40 0 9 3 -1 5 -23 4 -22 0 -30 -2 -17 -4z"/>
<path d="M6623 2183 c76 -2 198 -2 270 0 73 1 11 3 -138 3 -148 0 -208 -2
-132 -3z"/>
<path d="M8647 2183 c155 -2 411 -2 570 0 158 1 32 2 -282 2 -313 0 -443 -1
-288 -2z"/>
<path d="M3493 2163 c15 -2 39 -2 55 0 15 2 2 4 -28 4 -30 0 -43 -2 -27 -4z"/>
<path d="M6603 2163 c81 -2 213 -2 295 0 81 1 14 3 -148 3 -162 0 -229 -2
-147 -3z"/>
<path d="M8923 2163 c26 -2 68 -2 95 0 26 2 4 3 -48 3 -52 0 -74 -1 -47 -3z"/>
<path d="M9088 2163 c7 -3 16 -2 19 1 4 3 -2 6 -13 5 -11 0 -14 -3 -6 -6z"/>
<path d="M9428 2163 c7 -3 16 -2 19 1 4 3 -2 6 -13 5 -11 0 -14 -3 -6 -6z"/>
<path d="M9478 2163 c7 -3 16 -2 19 1 4 3 -2 6 -13 5 -11 0 -14 -3 -6 -6z"/>
<path d="M3498 2143 c17 -2 47 -2 65 0 17 2 3 4 -33 4 -36 0 -50 -2 -32 -4z"/>
<path d="M6443 2143 c48 -2 125 -2 170 0 45 1 6 3 -88 3 -93 0 -130 -2 -82 -3z"/>
<path d="M6788 2143 c50 -2 134 -2 185 0 50 1 9 3 -93 3 -102 0 -143 -2 -92
-3z"/>
<path d="M3508 2123 c17 -2 47 -2 65 0 17 2 3 4 -33 4 -36 0 -50 -2 -32 -4z"/>
<path d="M6412 2123 c37 -2 100 -2 140 0 40 1 10 3 -67 3 -77 0 -110 -1 -73
-3z"/>
<path d="M6792 2123 c48 -2 129 -2 180 0 51 1 12 3 -87 3 -99 0 -141 -2 -93
-3z"/>
<path d="M3513 2103 c20 -2 54 -2 75 0 20 2 3 4 -38 4 -41 0 -58 -2 -37 -4z"/>
<path d="M6403 2103 c32 -2 81 -2 110 0 29 2 3 3 -58 3 -60 0 -84 -1 -52 -3z"/>
<path d="M6803 2103 c48 -2 126 -2 175 0 48 1 8 3 -88 3 -96 0 -136 -2 -87 -3z"/>
<path d="M3508 2083 c23 -2 61 -2 85 0 23 2 4 4 -43 4 -47 0 -66 -2 -42 -4z"/>
<path d="M6802 2083 c48 -2 129 -2 180 0 51 1 12 3 -87 3 -99 0 -141 -2 -93
-3z"/>
<path d="M3513 2063 c26 -2 67 -2 90 0 23 2 2 3 -48 3 -49 0 -68 -1 -42 -3z"/>
<path d="M6803 2063 c20 -2 54 -2 75 0 20 2 3 4 -38 4 -41 0 -58 -2 -37 -4z"/>
<path d="M7008 2063 c12 -2 30 -2 40 0 9 3 -1 5 -23 4 -22 0 -30 -2 -17 -4z"/>
<path d="M3518 2043 c28 -2 76 -2 105 0 28 2 5 3 -53 3 -58 0 -81 -1 -52 -3z"/>
<path d="M6797 2043 c18 -2 50 -2 70 0 21 2 7 4 -32 4 -38 0 -55 -2 -38 -4z"/>
<path d="M3533 2023 c37 -2 97 -2 135 0 37 2 6 3 -68 3 -74 0 -105 -1 -67 -3z"/>
<path d="M6797 2023 c18 -2 50 -2 70 0 21 2 7 4 -32 4 -38 0 -55 -2 -38 -4z"/>
<path d="M3542 2003 c37 -2 100 -2 140 0 40 1 10 3 -67 3 -77 0 -110 -1 -73
-3z"/>
<path d="M6633 2003 c20 -2 54 -2 75 0 20 2 3 4 -38 4 -41 0 -58 -2 -37 -4z"/>
<path d="M6808 2003 c17 -2 47 -2 65 0 17 2 3 4 -33 4 -36 0 -50 -2 -32 -4z"/>
<path d="M3548 1983 c39 -2 105 -2 145 0 39 1 7 3 -73 3 -80 0 -112 -2 -72 -3z"/>
<path d="M6508 1983 c7 -3 16 -2 19 1 4 3 -2 6 -13 5 -11 0 -14 -3 -6 -6z"/>
<path d="M6632 1983 c48 -2 129 -2 180 0 51 1 12 3 -87 3 -99 0 -141 -2 -93
-3z"/>
<path d="M3503 1963 c9 -2 25 -2 35 0 9 3 1 5 -18 5 -19 0 -27 -2 -17 -5z"/>
<path d="M3623 1963 c26 -2 68 -2 95 0 26 2 4 3 -48 3 -52 0 -74 -1 -47 -3z"/>
<path d="M6548 1963 c68 -2 176 -2 240 0 64 1 9 3 -123 3 -132 0 -185 -2 -117
-3z"/>
<path d="M3653 1943 c20 -2 54 -2 75 0 20 2 3 4 -38 4 -41 0 -58 -2 -37 -4z"/>
<path d="M4168 1943 c6 -2 18 -2 25 0 6 3 1 5 -13 5 -14 0 -19 -2 -12 -5z"/>
<path d="M6328 1943 c12 -2 32 -2 45 0 12 2 2 4 -23 4 -25 0 -35 -2 -22 -4z"/>
<path d="M6523 1943 c71 -2 183 -2 250 0 67 1 10 3 -128 3 -137 0 -192 -2
-122 -3z"/>
<path d="M3653 1923 c20 -2 54 -2 75 0 20 2 3 4 -38 4 -41 0 -58 -2 -37 -4z"/>
<path d="M4068 1923 c34 -2 88 -2 120 0 31 2 3 3 -63 3 -66 0 -92 -1 -57 -3z"/>
<path d="M6418 1923 c90 -2 234 -2 320 0 86 1 13 3 -163 3 -176 0 -247 -2
-157 -3z"/>
<path d="M3662 1903 c48 -2 129 -2 180 0 51 1 12 3 -87 3 -99 0 -141 -2 -93
-3z"/>
<path d="M4018 1903 c45 -2 119 -2 165 0 45 1 8 3 -83 3 -91 0 -128 -2 -82 -3z"/>
<path d="M6418 1903 c90 -2 234 -2 320 0 86 1 13 3 -163 3 -176 0 -247 -2
-157 -3z"/>
<path d="M3743 1883 c97 -2 257 -2 355 0 97 1 17 2 -178 2 -195 0 -275 -1
-177 -2z"/>
<path d="M6423 1883 c87 -2 227 -2 310 0 84 1 13 3 -158 3 -170 0 -239 -2
-152 -3z"/>
<path d="M3738 1863 c101 -2 263 -2 360 0 97 1 15 2 -183 2 -198 0 -278 -1
-177 -2z"/>
<path d="M6358 1863 c6 -2 18 -2 25 0 6 3 1 5 -13 5 -14 0 -19 -2 -12 -5z"/>
<path d="M6513 1863 c43 -2 110 -2 150 0 40 1 5 3 -78 3 -82 0 -115 -2 -72 -3z"/>
<path d="M6788 1863 c18 -2 45 -2 60 0 15 2 0 4 -33 4 -33 0 -45 -2 -27 -4z"/>
<path d="M3778 1843 c116 -2 308 -2 425 0 116 1 21 2 -213 2 -234 0 -329 -1
-212 -2z"/>
<path d="M6533 1843 c31 -2 83 -2 115 0 31 2 5 3 -58 3 -63 0 -89 -1 -57 -3z"/>
<path d="M6798 1843 c12 -2 30 -2 40 0 9 3 -1 5 -23 4 -22 0 -30 -2 -17 -4z"/>
<path d="M3793 1823 c120 -2 314 -2 430 0 117 1 19 2 -218 2 -236 0 -332 -1
-212 -2z"/>
<path d="M6378 1823 c18 -2 45 -2 60 0 15 2 0 4 -33 4 -33 0 -45 -2 -27 -4z"/>
<path d="M6543 1823 c32 -2 81 -2 110 0 29 2 3 3 -58 3 -60 0 -84 -1 -52 -3z"/>
<path d="M6793 1823 c9 -2 25 -2 35 0 9 3 1 5 -18 5 -19 0 -27 -2 -17 -5z"/>
<path d="M3793 1803 c119 -2 315 -2 435 0 119 1 21 2 -218 2 -239 0 -337 -1
-217 -2z"/>
<path d="M6378 1803 c17 -2 47 -2 65 0 17 2 3 4 -33 4 -36 0 -50 -2 -32 -4z"/>
<path d="M6538 1803 c28 -2 76 -2 105 0 28 2 5 3 -53 3 -58 0 -81 -1 -52 -3z"/>
<path d="M3808 1783 c116 -2 308 -2 425 0 116 1 21 2 -213 2 -234 0 -329 -1
-212 -2z"/>
<path d="M6423 1783 c48 -2 126 -2 175 0 48 1 8 3 -88 3 -96 0 -136 -2 -87 -3z"/>
<path d="M3743 1763 c26 -2 67 -2 90 0 23 2 2 3 -48 3 -49 0 -68 -1 -42 -3z"/>
<path d="M4053 1763 c70 -2 184 -2 255 0 70 1 12 3 -128 3 -140 0 -198 -2
-127 -3z"/>
<path d="M6378 1763 c57 -2 147 -2 200 0 53 1 7 3 -103 3 -110 0 -154 -2 -97
-3z"/>
<path d="M3767 1743 c18 -2 50 -2 70 0 21 2 7 4 -32 4 -38 0 -55 -2 -38 -4z"/>
<path d="M4063 1743 c71 -2 183 -2 250 0 67 1 10 3 -128 3 -137 0 -192 -2
-122 -3z"/>
<path d="M6363 1743 c59 -2 154 -2 210 0 56 1 8 3 -108 3 -115 0 -161 -2 -102
-3z"/>
<path d="M3778 1723 c17 -2 47 -2 65 0 17 2 3 4 -33 4 -36 0 -50 -2 -32 -4z"/>
<path d="M4008 1723 c39 -2 105 -2 145 0 39 1 7 3 -73 3 -80 0 -112 -2 -72 -3z"/>
<path d="M4278 1723 c23 -2 61 -2 85 0 23 2 4 4 -43 4 -47 0 -66 -2 -42 -4z"/>
<path d="M4458 1723 c18 -2 45 -2 60 0 15 2 0 4 -33 4 -33 0 -45 -2 -27 -4z"/>
<path d="M6342 1723 c59 -2 158 -2 220 0 62 1 14 3 -107 3 -121 0 -172 -2
-113 -3z"/>
<path d="M3777 1703 c18 -2 50 -2 70 0 21 2 7 4 -32 4 -38 0 -55 -2 -38 -4z"/>
<path d="M3993 1703 c32 -2 81 -2 110 0 29 2 3 3 -58 3 -60 0 -84 -1 -52 -3z"/>
<path d="M4342 1703 c48 -2 129 -2 180 0 51 1 12 3 -87 3 -99 0 -141 -2 -93
-3z"/>
<path d="M6283 1703 c71 -2 183 -2 250 0 67 1 10 3 -128 3 -137 0 -192 -2
-122 -3z"/>
<path d="M3793 1683 c20 -2 54 -2 75 0 20 2 3 4 -38 4 -41 0 -58 -2 -37 -4z"/>
<path d="M3968 1683 c17 -2 47 -2 65 0 17 2 3 4 -33 4 -36 0 -50 -2 -32 -4z"/>
<path d="M4343 1683 c54 -2 139 -2 190 0 51 1 7 3 -98 3 -104 0 -146 -2 -92
-3z"/>
<path d="M6203 1683 c76 -2 198 -2 270 0 73 1 11 3 -138 3 -148 0 -208 -2
-132 -3z"/>
<path d="M3833 1663 c37 -2 97 -2 135 0 37 2 6 3 -68 3 -74 0 -105 -1 -67 -3z"/>
<path d="M4328 1663 c57 -2 147 -2 200 0 53 1 7 3 -103 3 -110 0 -154 -2 -97
-3z"/>
<path d="M6163 1663 c71 -2 183 -2 250 0 67 1 10 3 -128 3 -137 0 -192 -2
-122 -3z"/>
<path d="M3858 1643 c46 -2 118 -2 160 0 42 1 5 3 -83 3 -88 0 -123 -2 -77 -3z"/>
<path d="M4303 1643 c59 -2 155 -2 215 0 59 1 10 3 -108 3 -118 0 -167 -2
-107 -3z"/>
<path d="M6143 1643 c65 -2 168 -2 230 0 62 1 9 3 -118 3 -126 0 -177 -2 -112
-3z"/>
<path d="M3873 1623 c48 -2 126 -2 175 0 48 1 8 3 -88 3 -96 0 -136 -2 -87 -3z"/>
<path d="M4263 1623 c64 -2 170 -2 235 0 64 1 11 3 -118 3 -129 0 -182 -2
-117 -3z"/>
<path d="M6093 1623 c59 -2 154 -2 210 0 56 1 8 3 -108 3 -115 0 -161 -2 -102
-3z"/>
<path d="M4033 1603 c104 -2 270 -2 370 0 100 1 16 2 -188 2 -203 0 -285 -1
-182 -2z"/>
<path d="M6058 1603 c57 -2 147 -2 200 0 53 1 7 3 -103 3 -110 0 -154 -2 -97
-3z"/>
<path d="M4008 1583 c89 -2 235 -2 325 0 89 1 16 3 -163 3 -179 0 -252 -2
-162 -3z"/>
<path d="M5982 1583 c59 -2 158 -2 220 0 62 1 14 3 -107 3 -121 0 -172 -2
-113 -3z"/>
<path d="M4013 1563 c86 -2 228 -2 315 0 86 1 15 3 -158 3 -173 0 -244 -2
-157 -3z"/>
<path d="M5908 1563 c61 -2 163 -2 225 0 61 1 11 3 -113 3 -124 0 -174 -2
-112 -3z"/>
<path d="M3893 1543 c9 -2 23 -2 30 0 6 3 -1 5 -18 5 -16 0 -22 -2 -12 -5z"/>
<path d="M4023 1543 c48 -2 126 -2 175 0 48 1 8 3 -88 3 -96 0 -136 -2 -87 -3z"/>
<path d="M4358 1543 c23 -2 61 -2 85 0 23 2 4 4 -43 4 -47 0 -66 -2 -42 -4z"/>
<path d="M5858 1543 c68 -2 176 -2 240 0 64 1 9 3 -123 3 -132 0 -185 -2 -117
-3z"/>
<path d="M4043 1523 c43 -2 110 -2 150 0 40 1 5 3 -78 3 -82 0 -115 -2 -72 -3z"/>
<path d="M4368 1523 c23 -2 59 -2 80 0 20 2 1 4 -43 4 -44 0 -61 -2 -37 -4z"/>
<path d="M5842 1523 c59 -2 158 -2 220 0 62 1 14 3 -107 3 -121 0 -172 -2
-113 -3z"/>
<path d="M4103 1503 c70 -2 184 -2 255 0 70 1 12 3 -128 3 -140 0 -198 -2
-127 -3z"/>
<path d="M5848 1503 c56 -2 148 -2 205 0 56 1 10 3 -103 3 -113 0 -159 -2
-102 -3z"/>
<path d="M4168 1483 c56 -2 148 -2 205 0 56 1 10 3 -103 3 -113 0 -159 -2
-102 -3z"/>
<path d="M5773 1483 c15 -2 39 -2 55 0 15 2 2 4 -28 4 -30 0 -43 -2 -27 -4z"/>
<path d="M6003 1483 c26 -2 67 -2 90 0 23 2 2 3 -48 3 -49 0 -68 -1 -42 -3z"/>
<path d="M4183 1463 c54 -2 139 -2 190 0 51 1 7 3 -98 3 -104 0 -146 -2 -92
-3z"/>
<path d="M4738 1463 c6 -2 18 -2 25 0 6 3 1 5 -13 5 -14 0 -19 -2 -12 -5z"/>
<path d="M6068 1463 c12 -2 32 -2 45 0 12 2 2 4 -23 4 -25 0 -35 -2 -22 -4z"/>
<path d="M6398 1463 c6 -2 18 -2 25 0 6 3 1 5 -13 5 -14 0 -19 -2 -12 -5z"/>
<path d="M4188 1443 c57 -2 147 -2 200 0 53 1 7 3 -103 3 -110 0 -154 -2 -97
-3z"/>
<path d="M4498 1443 c7 -3 16 -2 19 1 4 3 -2 6 -13 5 -11 0 -14 -3 -6 -6z"/>
<path d="M4623 1443 c54 -2 139 -2 190 0 51 1 7 3 -98 3 -104 0 -146 -2 -92
-3z"/>
<path d="M6073 1443 c9 -2 25 -2 35 0 9 3 1 5 -18 5 -19 0 -27 -2 -17 -5z"/>
<path d="M6383 1443 c9 -2 25 -2 35 0 9 3 1 5 -18 5 -19 0 -27 -2 -17 -5z"/>
<path d="M4293 1423 c114 -2 300 -2 415 0 114 1 20 2 -208 2 -228 0 -322 -1
-207 -2z"/>
<path d="M6083 1423 c9 -2 23 -2 30 0 6 3 -1 5 -18 5 -16 0 -22 -2 -12 -5z"/>
<path d="M6358 1423 c18 -2 45 -2 60 0 15 2 0 4 -33 4 -33 0 -45 -2 -27 -4z"/>
<path d="M4298 1403 c116 -2 308 -2 425 0 116 1 21 2 -213 2 -234 0 -329 -1
-212 -2z"/>
<path d="M6338 1403 c17 -2 47 -2 65 0 17 2 3 4 -33 4 -36 0 -50 -2 -32 -4z"/>
<path d="M4148 1383 c23 -2 61 -2 85 0 23 2 4 4 -43 4 -47 0 -66 -2 -42 -4z"/>
<path d="M4453 1383 c86 -2 228 -2 315 0 86 1 15 3 -158 3 -173 0 -244 -2
-157 -3z"/>
<path d="M5968 1383 c7 -3 16 -2 19 1 4 3 -2 6 -13 5 -11 0 -14 -3 -6 -6z"/>
<path d="M6308 1383 c23 -2 59 -2 80 0 20 2 1 4 -43 4 -44 0 -61 -2 -37 -4z"/>
<path d="M4463 1363 c86 -2 228 -2 315 0 86 1 15 3 -158 3 -173 0 -244 -2
-157 -3z"/>
<path d="M5958 1363 c12 -2 32 -2 45 0 12 2 2 4 -23 4 -25 0 -35 -2 -22 -4z"/>
<path d="M6268 1363 c28 -2 76 -2 105 0 28 2 5 3 -53 3 -58 0 -81 -1 -52 -3z"/>
<path d="M4413 1343 c59 -2 154 -2 210 0 56 1 8 3 -108 3 -115 0 -161 -2 -102
-3z"/>
<path d="M4873 1343 c9 -2 25 -2 35 0 9 3 1 5 -18 5 -19 0 -27 -2 -17 -5z"/>
<path d="M5903 1343 c26 -2 67 -2 90 0 23 2 2 3 -48 3 -49 0 -68 -1 -42 -3z"/>
<path d="M6238 1343 c28 -2 76 -2 105 0 28 2 5 3 -53 3 -58 0 -81 -1 -52 -3z"/>
<path d="M4368 1323 c34 -2 90 -2 125 0 34 2 6 3 -63 3 -69 0 -97 -1 -62 -3z"/>
<path d="M5853 1323 c31 -2 83 -2 115 0 31 2 5 3 -58 3 -63 0 -89 -1 -57 -3z"/>
<path d="M6193 1323 c32 -2 81 -2 110 0 29 2 3 3 -58 3 -60 0 -84 -1 -52 -3z"/>
<path d="M4363 1303 c26 -2 67 -2 90 0 23 2 2 3 -48 3 -49 0 -68 -1 -42 -3z"/>
<path d="M5762 1303 c48 -2 129 -2 180 0 51 1 12 3 -87 3 -99 0 -141 -2 -93
-3z"/>
<path d="M6143 1303 c37 -2 97 -2 135 0 37 2 6 3 -68 3 -74 0 -105 -1 -67 -3z"/>
<path d="M4353 1283 c20 -2 54 -2 75 0 20 2 3 4 -38 4 -41 0 -58 -2 -37 -4z"/>
<path d="M5798 1283 c94 -2 250 -2 345 0 94 1 17 3 -173 3 -190 0 -267 -2
-172 -3z"/>
<path d="M4347 1263 c18 -2 50 -2 70 0 21 2 7 4 -32 4 -38 0 -55 -2 -38 -4z"/>
<path d="M5757 1263 c94 -2 252 -2 350 0 98 1 21 2 -172 2 -192 1 -273 -1
-178 -2z"/>
<path d="M4378 1243 c23 -2 59 -2 80 0 20 2 1 4 -43 4 -44 0 -61 -2 -37 -4z"/>
<path d="M5748 1243 c89 -2 235 -2 325 0 89 1 16 3 -163 3 -179 0 -252 -2
-162 -3z"/>
<path d="M4373 1223 c26 -2 67 -2 90 0 23 2 2 3 -48 3 -49 0 -68 -1 -42 -3z"/>
<path d="M5613 1223 c20 -2 54 -2 75 0 20 2 3 4 -38 4 -41 0 -58 -2 -37 -4z"/>
<path d="M5933 1223 c48 -2 126 -2 175 0 48 1 8 3 -88 3 -96 0 -136 -2 -87 -3z"/>
<path d="M4373 1203 c26 -2 68 -2 95 0 26 2 4 3 -48 3 -52 0 -74 -1 -47 -3z"/>
<path d="M5908 1203 c46 -2 118 -2 160 0 42 1 5 3 -83 3 -88 0 -123 -2 -77 -3z"/>
<path d="M4383 1183 c26 -2 67 -2 90 0 23 2 2 3 -48 3 -49 0 -68 -1 -42 -3z"/>
<path d="M5893 1183 c37 -2 96 -2 130 0 34 2 4 3 -68 3 -71 0 -99 -1 -62 -3z"/>
<path d="M4393 1163 c26 -2 67 -2 90 0 23 2 2 3 -48 3 -49 0 -68 -1 -42 -3z"/>
<path d="M4653 1163 c20 -2 54 -2 75 0 20 2 3 4 -38 4 -41 0 -58 -2 -37 -4z"/>
<path d="M5878 1163 c29 -2 74 -2 100 0 26 2 2 3 -53 3 -55 0 -76 -1 -47 -3z"/>
<path d="M6148 1163 c7 -3 16 -2 19 1 4 3 -2 6 -13 5 -11 0 -14 -3 -6 -6z"/>
<path d="M4393 1143 c26 -2 67 -2 90 0 23 2 2 3 -48 3 -49 0 -68 -1 -42 -3z"/>
<path d="M4628 1143 c29 -2 74 -2 100 0 26 2 2 3 -53 3 -55 0 -76 -1 -47 -3z"/>
<path d="M5848 1143 c23 -2 61 -2 85 0 23 2 4 4 -43 4 -47 0 -66 -2 -42 -4z"/>
<path d="M6133 1143 c9 -2 25 -2 35 0 9 3 1 5 -18 5 -19 0 -27 -2 -17 -5z"/>
<path d="M4453 1123 c59 -2 155 -2 215 0 59 1 10 3 -108 3 -118 0 -167 -2
-107 -3z"/>
<path d="M5833 1123 c20 -2 54 -2 75 0 20 2 3 4 -38 4 -41 0 -58 -2 -37 -4z"/>
<path d="M6128 1123 c12 -2 30 -2 40 0 9 3 -1 5 -23 4 -22 0 -30 -2 -17 -4z"/>
<path d="M4463 1103 c59 -2 154 -2 210 0 56 1 8 3 -108 3 -115 0 -161 -2 -102
-3z"/>
<path d="M5808 1103 c17 -2 47 -2 65 0 17 2 3 4 -33 4 -36 0 -50 -2 -32 -4z"/>
<path d="M6067 1103 c18 -2 50 -2 70 0 21 2 7 4 -32 4 -38 0 -55 -2 -38 -4z"/>
<path d="M4468 1083 c56 -2 148 -2 205 0 56 1 10 3 -103 3 -113 0 -159 -2
-102 -3z"/>
<path d="M4933 1083 c9 -2 25 -2 35 0 9 3 1 5 -18 5 -19 0 -27 -2 -17 -5z"/>
<path d="M5028 1083 c6 -2 18 -2 25 0 6 3 1 5 -13 5 -14 0 -19 -2 -12 -5z"/>
<path d="M5787 1083 c18 -2 50 -2 70 0 21 2 7 4 -32 4 -38 0 -55 -2 -38 -4z"/>
<path d="M6057 1083 c18 -2 50 -2 70 0 21 2 7 4 -32 4 -38 0 -55 -2 -38 -4z"/>
<path d="M4568 1063 c105 -2 279 -2 385 0 105 1 19 2 -193 2 -212 0 -298 -1
-192 -2z"/>
<path d="M5778 1063 c17 -2 47 -2 65 0 17 2 3 4 -33 4 -36 0 -50 -2 -32 -4z"/>
<path d="M6013 1063 c26 -2 68 -2 95 0 26 2 4 3 -48 3 -52 0 -74 -1 -47 -3z"/>
<path d="M4562 1043 c108 -2 288 -2 400 0 112 1 23 2 -197 2 -220 0 -311 -1
-203 -2z"/>
<path d="M5768 1043 c17 -2 47 -2 65 0 17 2 3 4 -33 4 -36 0 -50 -2 -32 -4z"/>
<path d="M5978 1043 c28 -2 76 -2 105 0 28 2 5 3 -53 3 -58 0 -81 -1 -52 -3z"/>
<path d="M4563 1023 c115 -2 299 -2 410 0 111 1 18 2 -208 2 -225 0 -316 -1
-202 -2z"/>
<path d="M5823 1023 c53 -2 141 -2 195 0 53 1 9 3 -98 3 -107 0 -151 -2 -97
-3z"/>
<path d="M4562 1003 c108 -2 288 -2 400 0 112 1 23 2 -197 2 -220 0 -311 -1
-203 -2z"/>
<path d="M5808 1003 c50 -2 134 -2 185 0 50 1 9 3 -93 3 -102 0 -143 -2 -92
-3z"/>
<path d="M4563 983 c108 -2 286 -2 395 0 108 1 19 2 -198 2 -217 0 -306 -1
-197 -2z"/>
<path d="M5793 983 c48 -2 126 -2 175 0 48 1 8 3 -88 3 -96 0 -136 -2 -87 -3z"/>
<path d="M4653 963 c43 -2 110 -2 150 0 40 1 5 3 -78 3 -82 0 -115 -2 -72 -3z"/>
<path d="M4898 963 c12 -2 32 -2 45 0 12 2 2 4 -23 4 -25 0 -35 -2 -22 -4z"/>
<path d="M5783 963 c42 -2 112 -2 155 0 42 1 7 3 -78 3 -85 0 -120 -2 -77 -3z"/>
<path d="M4652 943 c37 -2 100 -2 140 0 40 1 10 3 -67 3 -77 0 -110 -1 -73 -3z"/>
<path d="M5772 943 c37 -2 100 -2 140 0 40 1 10 3 -67 3 -77 0 -110 -1 -73 -3z"/>
<path d="M4643 923 c31 -2 83 -2 115 0 31 2 5 3 -58 3 -63 0 -89 -1 -57 -3z"/>
<path d="M5733 923 c43 -2 110 -2 150 0 40 1 5 3 -78 3 -82 0 -115 -2 -72 -3z"/>
<path d="M4653 903 c32 -2 81 -2 110 0 29 2 3 3 -58 3 -60 0 -84 -1 -52 -3z"/>
<path d="M5703 903 c37 -2 97 -2 135 0 37 2 6 3 -68 3 -74 0 -105 -1 -67 -3z"/>
<path d="M4608 883 c6 -2 18 -2 25 0 6 3 1 5 -13 5 -14 0 -19 -2 -12 -5z"/>
<path d="M4753 883 c15 -2 37 -2 50 0 12 2 0 4 -28 4 -27 0 -38 -2 -22 -4z"/>
<path d="M5663 883 c43 -2 110 -2 150 0 40 1 5 3 -78 3 -82 0 -115 -2 -72 -3z"/>
<path d="M4763 863 c15 -2 37 -2 50 0 12 2 0 4 -28 4 -27 0 -38 -2 -22 -4z"/>
<path d="M5643 863 c37 -2 96 -2 130 0 34 2 4 3 -68 3 -71 0 -99 -1 -62 -3z"/>
<path d="M4763 843 c15 -2 39 -2 55 0 15 2 2 4 -28 4 -30 0 -43 -2 -27 -4z"/>
<path d="M5623 843 c31 -2 83 -2 115 0 31 2 5 3 -58 3 -63 0 -89 -1 -57 -3z"/>
<path d="M4773 823 c15 -2 39 -2 55 0 15 2 2 4 -28 4 -30 0 -43 -2 -27 -4z"/>
<path d="M5608 823 c28 -2 76 -2 105 0 28 2 5 3 -53 3 -58 0 -81 -1 -52 -3z"/>
<path d="M4798 803 c29 -2 74 -2 100 0 26 2 2 3 -53 3 -55 0 -76 -1 -47 -3z"/>
<path d="M5153 803 c26 -2 68 -2 95 0 26 2 4 3 -48 3 -52 0 -74 -1 -47 -3z"/>
<path d="M5608 803 c29 -2 74 -2 100 0 26 2 2 3 -53 3 -55 0 -76 -1 -47 -3z"/>
<path d="M5968 803 c7 -3 16 -2 19 1 4 3 -2 6 -13 5 -11 0 -14 -3 -6 -6z"/>
<path d="M4742 783 c37 -2 100 -2 140 0 40 1 10 3 -67 3 -77 0 -110 -1 -73 -3z"/>
<path d="M5108 783 c39 -2 105 -2 145 0 39 1 7 3 -73 3 -80 0 -112 -2 -72 -3z"/>
<path d="M5603 783 c26 -2 68 -2 95 0 26 2 4 3 -48 3 -52 0 -74 -1 -47 -3z"/>
<path d="M5958 783 c12 -2 30 -2 40 0 9 3 -1 5 -23 4 -22 0 -30 -2 -17 -4z"/>
<path d="M4833 763 c93 -2 241 -2 330 0 89 1 14 3 -168 3 -181 0 -254 -2 -162
-3z"/>
<path d="M5608 763 c23 -2 61 -2 85 0 23 2 4 4 -43 4 -47 0 -66 -2 -42 -4z"/>
<path d="M5903 763 c20 -2 54 -2 75 0 20 2 3 4 -38 4 -41 0 -58 -2 -37 -4z"/>
<path d="M4823 743 c93 -2 241 -2 330 0 89 1 14 3 -168 3 -181 0 -254 -2 -162
-3z"/>
<path d="M5613 743 c20 -2 54 -2 75 0 20 2 3 4 -38 4 -41 0 -58 -2 -37 -4z"/>
<path d="M5808 743 c7 -3 16 -2 19 1 4 3 -2 6 -13 5 -11 0 -14 -3 -6 -6z"/>
<path d="M5888 743 c23 -2 61 -2 85 0 23 2 4 4 -43 4 -47 0 -66 -2 -42 -4z"/>
<path d="M4818 723 c89 -2 235 -2 325 0 89 1 16 3 -163 3 -179 0 -252 -2 -162
-3z"/>
<path d="M5618 723 c17 -2 47 -2 65 0 17 2 3 4 -33 4 -36 0 -50 -2 -32 -4z"/>
<path d="M5843 723 c31 -2 83 -2 115 0 31 2 5 3 -58 3 -63 0 -89 -1 -57 -3z"/>
<path d="M4813 703 c87 -2 227 -2 310 0 84 1 13 3 -158 3 -170 0 -239 -2 -152
-3z"/>
<path d="M5338 703 c6 -2 18 -2 25 0 6 3 1 5 -13 5 -14 0 -19 -2 -12 -5z"/>
<path d="M5688 703 c57 -2 147 -2 200 0 53 1 7 3 -103 3 -110 0 -154 -2 -97
-3z"/>
<path d="M4793 683 c82 -2 212 -2 290 0 78 1 12 3 -148 3 -159 0 -223 -2 -142
-3z"/>
<path d="M5268 683 c23 -2 61 -2 85 0 23 2 4 4 -43 4 -47 0 -66 -2 -42 -4z"/>
<path d="M5673 683 c53 -2 141 -2 195 0 53 1 9 3 -98 3 -107 0 -151 -2 -97 -3z"/>
<path d="M4678 663 c12 -2 32 -2 45 0 12 2 2 4 -23 4 -25 0 -35 -2 -22 -4z"/>
<path d="M4933 663 c87 -2 227 -2 310 0 84 1 13 3 -158 3 -170 0 -239 -2 -152
-3z"/>
<path d="M5643 663 c53 -2 141 -2 195 0 53 1 9 3 -98 3 -107 0 -151 -2 -97 -3z"/>
<path d="M4698 643 c6 -2 18 -2 25 0 6 3 1 5 -13 5 -14 0 -19 -2 -12 -5z"/>
<path d="M4858 643 c45 -2 119 -2 165 0 45 1 8 3 -83 3 -91 0 -128 -2 -82 -3z"/>
<path d="M5208 643 c34 -2 90 -2 125 0 34 2 6 3 -63 3 -69 0 -97 -1 -62 -3z"/>
<path d="M5593 643 c53 -2 141 -2 195 0 53 1 9 3 -98 3 -107 0 -151 -2 -97 -3z"/>
<path d="M4838 623 c34 -2 88 -2 120 0 31 2 3 3 -63 3 -66 0 -92 -1 -57 -3z"/>
<path d="M5183 623 c43 -2 110 -2 150 0 40 1 5 3 -78 3 -82 0 -115 -2 -72 -3z"/>
<path d="M5543 623 c59 -2 155 -2 215 0 59 1 10 3 -108 3 -118 0 -167 -2 -107
-3z"/>
<path d="M4848 603 c23 -2 59 -2 80 0 20 2 1 4 -43 4 -44 0 -61 -2 -37 -4z"/>
<path d="M5248 603 c100 -2 264 -2 365 0 100 1 18 2 -183 2 -201 0 -283 -1
-182 -2z"/>
<path d="M4863 583 c15 -2 39 -2 55 0 15 2 2 4 -28 4 -30 0 -43 -2 -27 -4z"/>
<path d="M5203 583 c97 -2 257 -2 355 0 97 1 17 2 -178 2 -195 0 -275 -1 -177
-2z"/>
<path d="M4878 563 c12 -2 32 -2 45 0 12 2 2 4 -23 4 -25 0 -35 -2 -22 -4z"/>
<path d="M5158 563 c94 -2 250 -2 345 0 94 1 17 3 -173 3 -190 0 -267 -2 -172
-3z"/>
<path d="M5063 543 c108 -2 286 -2 395 0 108 1 19 2 -198 2 -217 0 -306 -1
-197 -2z"/>
<path d="M5053 523 c103 -2 271 -2 375 0 103 1 18 2 -188 2 -206 0 -291 -1
-187 -2z"/>
<path d="M5053 503 c97 -2 257 -2 355 0 97 1 17 2 -178 2 -195 0 -275 -1 -177
-2z"/>
<path d="M5048 483 c94 -2 250 -2 345 0 94 1 17 3 -173 3 -190 0 -267 -2 -172
-3z"/>
<path d="M5053 463 c93 -2 241 -2 330 0 89 1 14 3 -168 3 -181 0 -254 -2 -162
-3z"/>
<path d="M5038 443 c84 -2 219 -2 300 0 81 1 12 3 -153 3 -165 0 -231 -2 -147
-3z"/>
<path d="M5033 423 c76 -2 198 -2 270 0 73 1 11 3 -138 3 -148 0 -208 -2 -132
-3z"/>
<path d="M5033 403 c71 -2 183 -2 250 0 67 1 10 3 -128 3 -137 0 -192 -2 -122
-3z"/>
<path d="M5028 383 c68 -2 176 -2 240 0 64 1 9 3 -123 3 -132 0 -185 -2 -117
-3z"/>
<path d="M5013 363 c59 -2 155 -2 215 0 59 1 10 3 -108 3 -118 0 -167 -2 -107
-3z"/>
<path d="M5003 343 c42 -2 112 -2 155 0 42 1 7 3 -78 3 -85 0 -120 -2 -77 -3z"/>
<path d="M5002 323 c37 -2 100 -2 140 0 40 1 10 3 -67 3 -77 0 -110 -1 -73 -3z"/>
<path d="M4998 303 c12 -2 32 -2 45 0 12 2 2 4 -23 4 -25 0 -35 -2 -22 -4z"/>
<path d="M5148 303 c6 -2 18 -2 25 0 6 3 1 5 -13 5 -14 0 -19 -2 -12 -5z"/>
</g>
</svg>
